# xmcd CD database file
#
# Track frame offsets:
#	150
#	14907
#	28598
#	42289
#	62731
#	77117
#	88538
#	102478
#	117280
#
# Disc length: 1695 seconds
#
# Revision: 1
# Processed by: cddbd v1.5.2PL0 Copyright (c) Steve Scherf et al.
# Submitted via: CDex 1.50Beta7
#
DISCID=73069d09
DTITLE=Seda Bagcan - Remember - Short version
DYEAR=1900
DGENRE=New Age
TTITLE0=Mul mantra
TTITLE1=Ek Ong Kaar
TTITLE2=Har Har Gobinde
TTITLE3=Sa Ta Na Ma
TTITLE4=Kal Akal
TTITLE5=Sarab Shanti
TTITLE6=Ek Ong Kar
TTITLE7=Triple Mantra
TTITLE8=May the Long Time
EXTD=
EXTT0=
EXTT1=
EXTT2=
EXTT3=
EXTT4=
EXTT5=
EXTT6=
EXTT7=
EXTT8=
PLAYORDER=
